<svg xmlns="http://www.w3.org/2000/svg" width="640" height="640" viewBox="0 0 640 640" fill="none">
  <path d="M-40 60C30 40 80 85 145 70C220 50 265 15 340 35C415 55 470 105 545 85C610 68 660 30 700 55" stroke="#143868" stroke-opacity=".28" stroke-width="1.35"/>
  <path d="M-40 105C40 88 95 130 160 112C240 90 295 55 370 75C445 95 505 140 580 118C640 100 675 65 700 95" stroke="#143868" stroke-opacity=".24" stroke-width="1.25"/>
  <path d="M-40 155C45 130 105 180 175 155C255 125 315 95 395 120C475 145 530 185 605 160C655 142 680 115 700 140" stroke="#143868" stroke-opacity=".3" stroke-width="1.35"/>
  <path d="M-40 205C50 180 115 230 190 205C275 175 340 140 420 165C500 190 560 235 640 205C670 190 685 170 700 185" stroke="#143868" stroke-opacity=".25" stroke-width="1.25"/>
  <path d="M-40 255C55 225 125 280 200 250C280 220 355 185 440 215C520 242 580 285 655 255C680 242 690 225 700 238" stroke="#143868" stroke-opacity=".28" stroke-width="1.35"/>
  <path d="M-40 310C60 280 135 335 215 300C300 260 375 230 465 265C545 295 605 340 680 305C695 295 700 280 700 290" stroke="#143868" stroke-opacity=".24" stroke-width="1.25"/>
  <path d="M-40 360C65 325 145 385 225 345C315 300 395 270 485 310C565 342 630 390 700 350" stroke="#143868" stroke-opacity=".3" stroke-width="1.35"/>
  <path d="M-40 415C70 380 155 440 240 400C330 350 415 325 510 365C590 398 655 445 700 410" stroke="#143868" stroke-opacity=".25" stroke-width="1.25"/>
  <path d="M-40 470C75 435 165 495 255 450C350 400 435 380 530 420C610 452 670 500 700 465" stroke="#143868" stroke-opacity=".28" stroke-width="1.35"/>
  <path d="M-40 520C80 485 175 545 270 500C365 450 455 430 550 475C630 510 680 550 700 525" stroke="#143868" stroke-opacity=".24" stroke-width="1.25"/>
  <path d="M-40 570C85 535 185 595 285 545C380 495 475 480 570 525C645 560 685 595 700 575" stroke="#143868" stroke-opacity=".27" stroke-width="1.35"/>
  <path d="M-40 25C35 10 95 48 160 28C235 5 295 -15 370 10C445 35 505 70 580 40C640 18 675 -5 700 20" stroke="#143868" stroke-opacity=".22" stroke-width="1.2"/>
  <path d="M-40 615C90 580 195 640 295 590C395 540 490 520 585 570C655 605 690 640 700 620" stroke="#143868" stroke-opacity=".22" stroke-width="1.2"/>
  <path d="M150 210C185 175 255 170 295 205C335 240 328 310 280 340C232 370 160 350 132 300C104 250 115 245 150 210Z" stroke="#143868" stroke-opacity=".26" stroke-width="1.3"/>
  <path d="M175 230C200 205 245 202 275 228C305 254 300 300 265 320C230 340 182 328 162 295C142 262 150 255 175 230Z" stroke="#143868" stroke-opacity=".22" stroke-width="1.2"/>
  <path d="M195 248C215 230 245 228 265 248C285 268 282 298 258 312C234 326 204 318 190 295C176 272 175 266 195 248Z" stroke="#143868" stroke-opacity=".2" stroke-width="1.1"/>
  <path d="M420 390C465 350 550 358 595 410C640 462 620 545 555 580C490 615 405 585 375 520C345 455 375 430 420 390Z" stroke="#143868" stroke-opacity=".26" stroke-width="1.3"/>
  <path d="M445 415C480 385 540 392 570 428C600 464 585 520 540 545C495 570 445 550 425 505C405 460 410 445 445 415Z" stroke="#143868" stroke-opacity=".22" stroke-width="1.2"/>
  <path d="M468 438C492 418 530 422 550 448C570 474 560 510 530 526C500 542 468 528 455 498C442 468 444 458 468 438Z" stroke="#143868" stroke-opacity=".2" stroke-width="1.1"/>
</svg>
