<svg xmlns="http://www.w3.org/2000/svg" viewBox="22 14 56 58" fill="none">
  <defs>
    <linearGradient id="shank" x1="50" y1="24" x2="50" y2="58" gradientUnits="userSpaceOnUse">
      <stop stop-color="#1A3577"/>
      <stop offset="0.55" stop-color="#125A9C"/>
      <stop offset="1" stop-color="#143C7D"/>
    </linearGradient>
    <linearGradient id="stock" x1="33" y1="30" x2="67" y2="30" gradientUnits="userSpaceOnUse">
      <stop stop-color="#266AAE"/>
      <stop offset="0.5" stop-color="#2C71B2"/>
      <stop offset="1" stop-color="#266AAE"/>
    </linearGradient>
    <linearGradient id="ribbon" x1="34" y1="40" x2="66" y2="40" gradientUnits="userSpaceOnUse">
      <stop stop-color="#143C7D"/>
      <stop offset="0.5" stop-color="#1A3577"/>
      <stop offset="1" stop-color="#143C7D"/>
    </linearGradient>
    <linearGradient id="waveFill" x1="50" y1="54" x2="50" y2="72" gradientUnits="userSpaceOnUse">
      <stop stop-color="#125A9C"/>
      <stop offset="1" stop-color="#143C7D"/>
    </linearGradient>
    <radialGradient id="halo" cx="50" cy="42" r="22" gradientUnits="userSpaceOnUse">
      <stop stop-color="#4BADF2" stop-opacity="0.28"/>
      <stop offset="1" stop-color="#4BADF2" stop-opacity="0"/>
    </radialGradient>
  </defs>

  <ellipse cx="50" cy="42" rx="24" ry="26" fill="url(#halo)"/>

  <g fill="url(#waveFill)">
    <path d="M22 62 C28 54 34 54 40 58 C46 62 52 62 50 66 C42 60 32 60 24 66 C20 64 20 64 22 62 Z"/>
    <path d="M78 62 C72 54 66 54 60 58 C54 62 48 62 50 66 C58 60 68 60 76 66 C80 64 80 64 78 62 Z"/>
  </g>
  <path d="M26 60 C32 55 38 56 44 59" stroke="#4BADF2" stroke-width="1.6" stroke-linecap="round" opacity="0.75"/>
  <path d="M74 60 C68 55 62 56 56 59" stroke="#4BADF2" stroke-width="1.6" stroke-linecap="round" opacity="0.75"/>
  <path d="M34 64 C42 58 50 58 58 64 C50 68 42 68 34 64 Z" fill="#266AAE" opacity="0.85"/>

  <path d="M32 52 C32 56 36 58 50 58 C64 58 68 56 68 52 C68 48 64 46 50 46 C36 46 32 48 32 52 Z" fill="url(#shank)"/>
  <path d="M36 51 C36 54 40 55 50 55 C60 55 64 54 64 51 C64 49 60 48 50 48 C40 48 36 49 36 51 Z" fill="#4BADF2" opacity="0.22"/>

  <rect x="47" y="26" width="6" height="32" rx="1.4" fill="url(#shank)"/>

  <path d="M50 18 C54.5 18 58 21.5 58 26 C58 30.5 54.5 34 50 34 C45.5 34 42 30.5 42 26 C42 21.5 45.5 18 50 18 Z" stroke="#266AAE" stroke-width="3.4" fill="none"/>
  <circle cx="50" cy="26" r="2" fill="#4BADF2" opacity="0.65"/>

  <rect x="33" y="28.5" width="34" height="4.8" rx="1.3" fill="url(#stock)"/>

  <rect x="34" y="38.5" width="32" height="7" rx="1.2" fill="url(#ribbon)"/>
  <rect x="36" y="41" width="28" height="2.2" rx="0.6" fill="#266AAE" opacity="0.9"/>

  <path d="M50 58 L50 52" stroke="#FFFFFF" stroke-width="0.8" stroke-linecap="round" opacity="0.2"/>
</svg>
